<svg width="200" height="207" viewBox="0 0 200 207" fill="none" xmlns="http://www.w3.org/2000/svg">
<path d="M171.247 89.1962C158.686 87.3003 151.433 66.987 153.54 53.0308C155.431 40.5226 167.105 31.9077 179.613 33.7988C192.122 35.69 200.736 47.364 198.845 59.8722C196.725 73.8589 183.816 91.114 171.247 89.1962ZM119.786 66.8386C105.1 68.4773 90.2675 46.9929 88.3908 30.1534C86.7272 15.2756 97.4222 1.84264 112.322 0.170513C127.2 -1.49304 140.633 9.20196 142.305 24.1016C144.181 40.9411 134.471 65.1999 119.786 66.8386ZM48.9074 137.212C40.9656 147.168 19.6958 143.281 8.63783 134.458C-1.27836 126.551 -2.89696 112.11 5.03155 102.186C12.9382 92.2695 27.4009 90.6424 37.2952 98.5576C48.3399 107.411 56.8492 127.257 48.9074 137.212ZM65.3233 88.1804C53.4343 96.9553 29.8278 85.7521 19.7861 72.1121C10.8988 60.0651 13.4588 43.0777 25.5278 34.1819C37.5967 25.286 54.5621 27.8547 63.458 39.9236C73.4998 53.5636 77.2124 79.4055 65.3233 88.1804ZM99.5907 86.4437C124.042 76.8622 175.452 99.6691 187.247 129.768C195.078 149.754 193.344 163.564 183.776 171.884C180.477 174.742 177.406 176.248 172.465 178.008C171.493 178.364 171.309 178.41 171.025 178.522C168.464 179.525 165.576 179.697 161.374 179.476C159.977 179.392 158.489 179.268 156.364 179.065C157.883 179.202 152.377 178.683 151.098 178.578C146.835 178.203 143.619 178.05 140.706 178.156C138.461 178.227 136.486 178.471 134.802 178.878L136.554 178.192C135.05 179.059 133.457 180.214 131.739 181.695C129.517 183.626 127.274 185.894 124.409 189.087C123.543 190.033 119.886 194.168 120.885 193.044C119.463 194.636 118.456 195.738 117.488 196.749C114.585 199.78 112.328 201.624 109.767 202.628C109.482 202.739 109.307 202.808 108.361 203.229C103.54 205.295 100.263 206.276 95.9002 206.42C83.2274 206.816 72.572 197.86 64.7404 177.875C52.9458 147.776 75.1395 96.0252 99.5907 86.4437Z" fill="#3F4948" fill-opacity="0.5"/>
</svg>
